<svg xmlns="http://www.w3.org/2000/svg" width="21.735" height="16.989" viewBox="0 0 21.735 16.989">
  <path id="camera" d="M6.02,21.881H21.963a2.574,2.574,0,0,0,2.9-2.865V9.787a2.574,2.574,0,0,0-2.9-2.865h-2.4a1.463,1.463,0,0,1-1.336-.562l-.694-.747a2.188,2.188,0,0,0-1.819-.721H12.225a2.2,2.2,0,0,0-1.819.721l-.694.747a1.474,1.474,0,0,1-1.336.563H6.02A2.568,2.568,0,0,0,3.128,9.787v9.228A2.568,2.568,0,0,0,6.02,21.881Zm.114-1.749a1.133,1.133,0,0,1-1.257-1.274V9.945A1.13,1.13,0,0,1,6.134,8.68H8.885a1.9,1.9,0,0,0,1.644-.624l.668-.738a1.656,1.656,0,0,1,1.529-.677h2.487a1.645,1.645,0,0,1,1.521.668l.677.747a1.9,1.9,0,0,0,1.643.624h2.795a1.127,1.127,0,0,1,1.257,1.266v8.912a1.129,1.129,0,0,1-1.257,1.274Zm7.857-1.16a4.755,4.755,0,1,0-4.737-4.755A4.728,4.728,0,0,0,13.991,18.972Zm5.045-7.9a1.143,1.143,0,0,0,2.285,0,1.143,1.143,0,1,0-2.285,0Zm-5.045,6.3a3.155,3.155,0,1,1,3.155-3.155A3.151,3.151,0,0,1,13.991,17.372Z" transform="translate(-3.128 -4.892)" fill="#197572"/>
</svg>
