<svg xmlns="http://www.w3.org/2000/svg" width="11.543" height="14.691" viewBox="0 0 11.543 14.691">
  <path id="delete_1_" data-name="delete (1)" d="M10.4,3.1h3.148V5.2H12.494v9.444a1.052,1.052,0,0,1-1.049,1.049H4.1a1.052,1.052,0,0,1-1.049-1.049V5.2H2V3.1H5.148V2.049A1.052,1.052,0,0,1,6.2,1H9.346A1.052,1.052,0,0,1,10.4,2.049Zm-4.2,0H9.346V2.053l0,0H6.2S6.2,3.1,6.2,3.1Zm5.247,11.543V5.2H10.4v8.4H9.346V5.2H8.3v8.4H7.247V5.2H6.2v8.4H5.148V5.2H4.1v9.441l0,0Z" transform="translate(-2 -1)" fill="#197572"/>
</svg>
