<svg xmlns="http://www.w3.org/2000/svg" width="84" height="39" viewBox="0 0 84 39">
  <g id="Toggle" transform="translate(0.003)">
    <g id="Rectangle_868" data-name="Rectangle 868" transform="translate(-0.003)" fill="none" stroke="#197572" stroke-width="1">
      <rect width="84" height="39" rx="19.5" stroke="none"/>
      <rect x="0.5" y="0.5" width="83" height="38" rx="19" fill="none"/>
    </g>
    <circle id="Ellipse_142" data-name="Ellipse 142" cx="16.5" cy="16.5" r="16.5" transform="translate(46.997 3)" fill="#197572"/>
    <path id="Path_2384" data-name="Path 2384" d="M7.1,0V-5.64l5.24-7.7H10.4L6.26-7.14l-4.14-6.2H.18l5.26,7.7V0Zm3.82-4.84A4.79,4.79,0,0,0,15.84.24a5.248,5.248,0,0,0,3.84-1.48l-.72-.98A4.222,4.222,0,0,1,15.98-1,3.4,3.4,0,0,1,12.5-4.34h7.82v-.38c0-2.9-1.72-5.18-4.64-5.18A4.831,4.831,0,0,0,10.92-4.84Zm4.74-3.82a3.131,3.131,0,0,1,3.18,3.22H12.5A3.223,3.223,0,0,1,15.66-8.66ZM21.9-1.28A5.138,5.138,0,0,0,25.8.24c2.5,0,3.8-1.3,3.8-2.92,0-2.14-1.94-2.62-3.62-3-1.26-.3-2.36-.6-2.36-1.54,0-.86.82-1.46,2.14-1.46a3.763,3.763,0,0,1,2.88,1.22l.7-1.04a4.888,4.888,0,0,0-3.58-1.4c-2.3,0-3.6,1.28-3.6,2.78,0,2,1.86,2.44,3.5,2.82,1.3.32,2.48.66,2.48,1.72,0,.94-.8,1.6-2.28,1.6a4.377,4.377,0,0,1-3.18-1.38Z" transform="translate(10.997 25.5)" fill="#197572"/>
  </g>
</svg>
